<?xml version="1.0" encoding="UTF-8" standalone="no"?>
<!-- Created with Inkscape (http://www.inkscape.org/) -->

<svg
   width="210mm"
   height="297mm"
   viewBox="0 0 210 297"
   version="1.1"
   id="svg1"
   inkscape:version="1.4.2 (2aeb623e1d, 2025-05-12)"
   sodipodi:docname="crossings.svg"
   inkscape:export-filename="../d8abe0f9/crossings.png"
   inkscape:export-xdpi="96"
   inkscape:export-ydpi="96"
   xmlns:inkscape="http://www.inkscape.org/namespaces/inkscape"
   xmlns:sodipodi="http://sodipodi.sourceforge.net/DTD/sodipodi-0.dtd"
   xmlns="http://www.w3.org/2000/svg"
   xmlns:svg="http://www.w3.org/2000/svg">
  <sodipodi:namedview
     id="namedview1"
     pagecolor="#ffffff"
     bordercolor="#000000"
     borderopacity="0.25"
     inkscape:showpageshadow="2"
     inkscape:pageopacity="0.0"
     inkscape:pagecheckerboard="0"
     inkscape:deskcolor="#d1d1d1"
     inkscape:document-units="mm"
     inkscape:zoom="2.8284271"
     inkscape:cx="642.40651"
     inkscape:cy="519.54671"
     inkscape:window-width="1920"
     inkscape:window-height="1011"
     inkscape:window-x="0"
     inkscape:window-y="0"
     inkscape:window-maximized="1"
     inkscape:current-layer="layer1" />
  <defs
     id="defs1" />
  <g
     inkscape:label="Layer 1"
     inkscape:groupmode="layer"
     id="layer1">
    <path
       style="opacity:1;fill:none;stroke:#000000;stroke-width:0.264583;stroke-opacity:1"
       d="m 132.07694,119.02762 -0.0303,8.39126 3.75438,3.61772 h 8.51438 l 3.61906,-3.61906 v -8.49011 l -3.65297,-3.65297 h -8.49392 z"
       id="path1"
       sodipodi:nodetypes="ccccccccc"
       inkscape:export-filename="../d8abe0f9/crossings.png"
       inkscape:export-xdpi="256"
       inkscape:export-ydpi="256" />
    <path
       style="opacity:1;fill:#4d4d4d;stroke:#000000;stroke-width:0.264583;stroke-opacity:1"
       d="m 132.96536,119.07602 2.93633,-2.882 h 8.27326 l 2.90014,2.90014 v 8.33652 l -2.8334,2.8334 h -8.33651 l -2.90015,-2.90016 z"
       id="path2" />
    <path
       style="fill:none;stroke:#000000;stroke-width:0.264583;stroke-opacity:1"
       d="m 149.76862,119.08272 -0.0303,8.39126 3.75438,3.61772 h 8.51438 l 3.61906,-3.61906 v -8.49011 l -3.65297,-3.65297 h -8.49392 z"
       id="path1-1"
       sodipodi:nodetypes="ccccccccc" />
    <path
       style="fill:#4d4d4d;stroke:#000000;stroke-width:0.264583;stroke-opacity:1"
       d="m 150.65704,119.13112 2.93633,-2.882 h 8.27326 l 2.90014,2.90014 v 8.33652 l -2.8334,2.8334 h -8.33651 l -2.90015,-2.90016 z"
       id="path2-7" />
    <path
       style="fill:none;stroke:#000000;stroke-width:0.264583;stroke-opacity:1"
       d="m 132.14208,136.53796 -0.0303,8.39126 3.75438,3.61772 h 8.51438 l 3.61906,-3.61906 v -8.49011 l -3.65297,-3.65297 h -8.49392 z"
       id="path1-9"
       sodipodi:nodetypes="ccccccccc" />
    <path
       style="fill:#4d4d4d;stroke:#000000;stroke-width:0.264583;stroke-opacity:1"
       d="m 133.0305,136.58636 2.93633,-2.882 h 8.27326 l 2.90014,2.90014 v 8.33652 l -2.8334,2.8334 h -8.33651 l -2.90015,-2.90016 z"
       id="path2-1" />
    <path
       style="fill:none;stroke:#000000;stroke-width:0.264583;stroke-opacity:1"
       d="m 149.83376,136.59306 -0.0303,8.39126 3.75438,3.61772 h 8.51438 l 3.61906,-3.61906 v -8.49011 l -3.65297,-3.65297 h -8.49392 z"
       id="path1-1-2"
       sodipodi:nodetypes="ccccccccc" />
    <path
       style="fill:#4d4d4d;stroke:#000000;stroke-width:0.264583;stroke-opacity:1"
       d="m 150.72218,136.64146 2.93633,-2.882 h 8.27326 l 2.90014,2.90014 v 8.33652 l -2.8334,2.8334 H 153.662 l -2.90015,-2.90016 z"
       id="path2-7-0" />
    <rect
       style="opacity:1;fill:none;stroke:#ff5555;stroke-width:0.136304;stroke-opacity:1"
       id="rect2"
       width="0.93971914"
       height="0.048190728"
       x="142.96184"
       y="131.59084" />
    <rect
       style="fill:none;stroke:#ff5555;stroke-width:0.136304;stroke-opacity:1"
       id="rect2-0"
       width="0.93971914"
       height="0.048190728"
       x="142.95981"
       y="131.33595" />
    <rect
       style="fill:none;stroke:#ff5555;stroke-width:0.136304;stroke-opacity:1"
       id="rect2-5"
       width="0.93971914"
       height="0.048190728"
       x="142.96292"
       y="132.43094" />
    <rect
       style="fill:none;stroke:#ff5555;stroke-width:0.136304;stroke-opacity:1"
       id="rect2-9"
       width="0.93971914"
       height="0.048190728"
       x="142.96085"
       y="132.13742" />
    <rect
       style="fill:none;stroke:#ff5555;stroke-width:0.136304;stroke-opacity:1"
       id="rect2-8"
       width="0.93971914"
       height="0.048190728"
       x="142.96184"
       y="131.85426" />
    <rect
       style="fill:none;stroke:#ff5555;stroke-width:0.136304;stroke-opacity:1"
       id="rect2-4"
       width="0.93971914"
       height="0.048190728"
       x="136.08511"
       y="131.59116" />
    <rect
       style="fill:none;stroke:#ff5555;stroke-width:0.136304;stroke-opacity:1"
       id="rect2-0-2"
       width="0.93971914"
       height="0.048190728"
       x="136.08308"
       y="131.33627" />
    <rect
       style="fill:none;stroke:#ff5555;stroke-width:0.136304;stroke-opacity:1"
       id="rect2-5-1"
       width="0.93971914"
       height="0.048190728"
       x="136.0862"
       y="132.43126" />
    <rect
       style="fill:none;stroke:#ff5555;stroke-width:0.136304;stroke-opacity:1"
       id="rect2-9-5"
       width="0.93971914"
       height="0.048190728"
       x="136.08412"
       y="132.13774" />
    <rect
       style="fill:none;stroke:#ff5555;stroke-width:0.136304;stroke-opacity:1"
       id="rect2-8-3"
       width="0.93971914"
       height="0.048190728"
       x="136.08511"
       y="131.85458" />
    <rect
       style="fill:none;stroke:#ff5555;stroke-width:0.136304;stroke-opacity:1"
       id="rect2-03"
       width="0.93971914"
       height="0.048190728"
       x="126.2991"
       y="-149.13756"
       transform="rotate(90)" />
    <rect
       style="fill:none;stroke:#ff5555;stroke-width:0.136304;stroke-opacity:1"
       id="rect2-0-0"
       width="0.93971914"
       height="0.048190728"
       x="126.29708"
       y="-149.39244"
       transform="rotate(90)" />
    <rect
       style="fill:none;stroke:#ff5555;stroke-width:0.136304;stroke-opacity:1"
       id="rect2-5-0"
       width="0.93971914"
       height="0.048190728"
       x="126.30019"
       y="-148.29747"
       transform="rotate(90)" />
    <rect
       style="fill:none;stroke:#ff5555;stroke-width:0.136304;stroke-opacity:1"
       id="rect2-9-56"
       width="0.93971914"
       height="0.048190728"
       x="126.29811"
       y="-148.59097"
       transform="rotate(90)" />
    <rect
       style="fill:none;stroke:#ff5555;stroke-width:0.136304;stroke-opacity:1"
       id="rect2-8-6"
       width="0.93971914"
       height="0.048190728"
       x="126.2991"
       y="-148.87413"
       transform="rotate(90)" />
    <rect
       style="fill:none;stroke:#ff5555;stroke-width:0.136304;stroke-opacity:1"
       id="rect2-03-8"
       width="0.93971914"
       height="0.048190728"
       x="119.18379"
       y="-149.14853"
       transform="rotate(90)" />
    <rect
       style="fill:none;stroke:#ff5555;stroke-width:0.136304;stroke-opacity:1"
       id="rect2-0-0-4"
       width="0.93971914"
       height="0.048190728"
       x="119.18179"
       y="-149.40341"
       transform="rotate(90)" />
    <rect
       style="fill:none;stroke:#ff5555;stroke-width:0.136304;stroke-opacity:1"
       id="rect2-5-0-5"
       width="0.93971914"
       height="0.048190728"
       x="119.18488"
       y="-148.30844"
       transform="rotate(90)" />
    <rect
       style="fill:none;stroke:#ff5555;stroke-width:0.136304;stroke-opacity:1"
       id="rect2-9-56-0"
       width="0.93971914"
       height="0.048190728"
       x="119.18282"
       y="-148.60194"
       transform="rotate(90)" />
    <rect
       style="fill:none;stroke:#ff5555;stroke-width:0.136304;stroke-opacity:1"
       id="rect2-8-6-5"
       width="0.93971914"
       height="0.048190728"
       x="119.18379"
       y="-148.8851"
       transform="rotate(90)" />
    <rect
       style="fill:none;stroke:#ff5555;stroke-width:0.136304;stroke-opacity:1"
       id="rect2-03-4"
       width="0.93971914"
       height="0.048190728"
       x="136.78149"
       y="-149.25433"
       transform="rotate(90)" />
    <rect
       style="fill:none;stroke:#ff5555;stroke-width:0.136304;stroke-opacity:1"
       id="rect2-0-0-7"
       width="0.93971914"
       height="0.048190728"
       x="136.77948"
       y="-149.50922"
       transform="rotate(90)" />
    <rect
       style="fill:none;stroke:#ff5555;stroke-width:0.136304;stroke-opacity:1"
       id="rect2-5-0-51"
       width="0.93971914"
       height="0.048190728"
       x="136.78258"
       y="-148.41425"
       transform="rotate(90)" />
    <rect
       style="fill:none;stroke:#ff5555;stroke-width:0.136304;stroke-opacity:1"
       id="rect2-9-56-5"
       width="0.93971914"
       height="0.048190728"
       x="136.7805"
       y="-148.70775"
       transform="rotate(90)" />
    <rect
       style="fill:none;stroke:#ff5555;stroke-width:0.136304;stroke-opacity:1"
       id="rect2-8-6-8"
       width="0.93971914"
       height="0.048190728"
       x="136.78149"
       y="-148.99091"
       transform="rotate(90)" />
    <rect
       style="fill:none;stroke:#ff5555;stroke-width:0.136304;stroke-opacity:1"
       id="rect2-55"
       width="0.93971914"
       height="0.048190728"
       x="153.90771"
       y="131.64992" />
    <rect
       style="fill:none;stroke:#ff5555;stroke-width:0.136304;stroke-opacity:1"
       id="rect2-0-1"
       width="0.93971914"
       height="0.048190728"
       x="153.90569"
       y="131.39503" />
    <rect
       style="fill:none;stroke:#ff5555;stroke-width:0.136304;stroke-opacity:1"
       id="rect2-5-7"
       width="0.93971914"
       height="0.048190728"
       x="153.9088"
       y="132.49002" />
    <rect
       style="fill:none;stroke:#ff5555;stroke-width:0.136304;stroke-opacity:1"
       id="rect2-9-3"
       width="0.93971914"
       height="0.048190728"
       x="153.90672"
       y="132.1965" />
    <rect
       style="fill:none;stroke:#ff5555;stroke-width:0.136304;stroke-opacity:1"
       id="rect2-8-2"
       width="0.93971914"
       height="0.048190728"
       x="153.90771"
       y="131.91335" />
    <rect
       style="fill:none;stroke:#ff5555;stroke-width:0.136304;stroke-opacity:1"
       id="rect2-1"
       width="0.93971914"
       height="0.048190728"
       x="160.7079"
       y="131.64992" />
    <rect
       style="fill:none;stroke:#ff5555;stroke-width:0.136304;stroke-opacity:1"
       id="rect2-0-9"
       width="0.93971914"
       height="0.048190728"
       x="160.70587"
       y="131.39503" />
    <rect
       style="fill:none;stroke:#ff5555;stroke-width:0.136304;stroke-opacity:1"
       id="rect2-5-8"
       width="0.93971914"
       height="0.048190728"
       x="160.70898"
       y="132.49002" />
    <rect
       style="fill:none;stroke:#ff5555;stroke-width:0.136304;stroke-opacity:1"
       id="rect2-9-2"
       width="0.93971914"
       height="0.048190728"
       x="160.70691"
       y="132.1965" />
    <rect
       style="fill:none;stroke:#ff5555;stroke-width:0.136304;stroke-opacity:1"
       id="rect2-8-5"
       width="0.93971914"
       height="0.048190728"
       x="160.7079"
       y="131.91335" />
    <rect
       style="fill:none;stroke:#ff5555;stroke-width:0.136304;stroke-opacity:1"
       id="rect2-03-88"
       width="0.93971914"
       height="0.048190728"
       x="143.77837"
       y="-149.23772"
       transform="rotate(90)" />
    <rect
       style="fill:none;stroke:#ff5555;stroke-width:0.136304;stroke-opacity:1"
       id="rect2-0-0-40"
       width="0.93971914"
       height="0.048190728"
       x="143.77635"
       y="-149.4926"
       transform="rotate(90)" />
    <rect
       style="fill:none;stroke:#ff5555;stroke-width:0.136304;stroke-opacity:1"
       id="rect2-5-0-0"
       width="0.93971914"
       height="0.048190728"
       x="143.77945"
       y="-148.39763"
       transform="rotate(90)" />
    <rect
       style="fill:none;stroke:#ff5555;stroke-width:0.136304;stroke-opacity:1"
       id="rect2-9-56-3"
       width="0.93971914"
       height="0.048190728"
       x="143.77737"
       y="-148.69113"
       transform="rotate(90)" />
    <rect
       style="fill:none;stroke:#ff5555;stroke-width:0.136304;stroke-opacity:1"
       id="rect2-8-6-2"
       width="0.93971914"
       height="0.048190728"
       x="143.77837"
       y="-148.97429"
       transform="rotate(90)" />
    <path
       style="opacity:1;fill:none;stroke:#000000;stroke-width:0.264583;stroke-opacity:1"
       d="m 177.18277,120.76521 v 8.40219 l 2.83393,2.83394 h 8.33651 l 2.89024,-2.89024 v -8.33672 l -2.88417,-2.8431 c 0,0 -8.28573,0 -8.28573,0 z"
       id="path3" />
    <path
       style="fill:none;stroke:#000000;stroke-width:0.264583;stroke-opacity:1"
       d="m 177.1767,134.83527 v 8.40219 l 2.83393,2.83394 h 8.33651 l 2.89024,-2.89024 v -8.33672 l -2.88417,-2.8431 c 0,0 -8.28573,0 -8.28573,0 z"
       id="path3-9" />
    <path
       style="fill:none;stroke:#000000;stroke-width:0.264583;stroke-opacity:1"
       d="m 191.24345,120.77438 v 8.40219 l 2.83393,2.83394 h 8.33651 l 2.89024,-2.89024 v -8.33672 l -2.88417,-2.8431 c 0,0 -8.28573,0 -8.28573,0 z"
       id="path3-2" />
    <path
       style="fill:none;stroke:#000000;stroke-width:0.264583;stroke-opacity:1"
       d="m 191.23738,134.84444 v 8.40219 l 2.83393,2.83394 h 8.33651 l 2.89024,-2.89024 v -8.33672 l -2.88417,-2.8431 c 0,0 -8.28573,0 -8.28573,0 z"
       id="path3-9-8" />
    <path
       style="opacity:1;fill:none;stroke:#000000;stroke-width:0.322841;stroke-opacity:1"
       d="m 169.53363,131.36409 h 2.57661"
       id="path4" />
    <path
       style="opacity:1;fill:none;stroke:#000000;stroke-width:0.264583;stroke-opacity:1"
       d="m 169.53772,132.41201 h 2.60724"
       id="path5"
       sodipodi:nodetypes="cc" />
    <path
       style="opacity:1;fill:none;stroke:#000000;stroke-width:0.264583;stroke-opacity:1"
       d="m 171.42,130.42419 1.09914,1.49671 -1.12253,1.47332"
       id="path6" />
  </g>
</svg>
